<svg width="1200" height="420" viewBox="0 0 1200 420" xmlns="http://www.w3.org/2000/svg">
  <defs>
    <radialGradient id="bg2" cx="60%" cy="35%" r="85%">
      <stop offset="0%" stop-color="#db2777"/>
      <stop offset="55%" stop-color="#9d174d"/>
      <stop offset="100%" stop-color="#2c0a1f"/>
    </radialGradient>
    <linearGradient id="badge2" x1="0%" y1="0%" x2="100%" y2="100%">
      <stop offset="0%" stop-color="#fbcfe8"/>
      <stop offset="100%" stop-color="#f472b6"/>
    </linearGradient>
  </defs>

  <rect width="1200" height="420" fill="url(#bg2)"/>

  <g stroke="#ffffff" stroke-opacity="0.08" stroke-width="1">
    <line x1="-40" y1="420" x2="380" y2="0"/>
    <line x1="20" y1="420" x2="440" y2="0"/>
    <line x1="80" y1="420" x2="500" y2="0"/>
  </g>

  <g stroke="#ffffff" stroke-opacity="0.25" stroke-width="2" stroke-linecap="round">
    <path d="M 100 95 v 22 M 89 106 h 22"/>
  </g>
  <g stroke="#ffffff" stroke-opacity="0.18" stroke-width="2" stroke-linecap="round">
    <path d="M 160 300 v 14 M 153 307 h 14"/>
  </g>

  <text x="80" y="200" font-family="'Space Grotesk', 'Inter', sans-serif" font-size="40" font-weight="800" fill="#ffffff">Update your</text>
  <text x="80" y="253" font-family="'Space Grotesk', 'Inter', sans-serif" font-size="40" font-weight="800" fill="#fbcfe8">security PIN.</text>
  <text x="80" y="292" font-family="'Space Grotesk', 'Inter', sans-serif" font-size="17" fill="#fce7f3" fill-opacity="0.85">Choose a new 4-digit code only you know.</text>

  <g transform="translate(1020, 210)">
    <circle r="118" fill="none" stroke="#ffffff" stroke-opacity="0.2" stroke-width="1"/>
    <circle r="92" fill="none" stroke="#ffffff" stroke-opacity="0.25" stroke-width="1"/>
    <path d="M -92 -35 A 92 92 0 0 1 -35 -92" fill="none" stroke="#fbcfe8" stroke-opacity="0.7" stroke-width="2.5" stroke-linecap="round"/>

    <circle cx="111" cy="-57" r="4" fill="#f472b6" fill-opacity="0.9"/>
    <circle cx="-122" cy="58" r="3.5" fill="#ec4899" fill-opacity="0.7"/>
    <circle cx="120" cy="88" r="3" fill="#fbcfe8" fill-opacity="0.8"/>

    <rect x="-63" y="-63" width="126" height="126" rx="28" fill="#ffffff" fill-opacity="0.1"/>
    <g transform="translate(-48, -48)">
      <rect x="0" y="0" width="96" height="96" rx="20" fill="url(#badge2)"/>
      <g fill="#3d0724">
        <circle cx="28" cy="28" r="6"/>
        <circle cx="68" cy="28" r="6"/>
        <circle cx="28" cy="68" r="6"/>
        <circle cx="68" cy="68" r="6"/>
      </g>
    </g>
  </g>
</svg>
